<svg width="366" height="153" viewBox="0 0 366 153" fill="none" xmlns="http://www.w3.org/2000/svg">
<path d="M66.4868 142.789H90.4201V9.35994H66.4868V142.789ZM95.0868 152.137H61.8201C59.2334 152.137 57.14 150.044 57.14 147.464V4.68526C57.14 2.10526 59.2334 0.011957 61.8201 0.011957H95.0868C97.6734 0.011957 99.7667 2.10526 99.7667 4.68526V147.464C99.7667 150.044 97.6734 152.137 95.0868 152.137Z" fill="#995C41"/>
<path d="M37.9134 117.241H57.1401V34.9039H37.9134V117.241ZM61.8202 126.589H33.2467C30.6601 126.589 28.5668 124.496 28.5668 121.916V30.2306C28.5668 27.6506 30.6601 25.556 33.2467 25.556H61.8202C64.3935 25.556 66.4868 27.6506 66.4868 30.2306V121.916C66.4868 124.496 64.3935 126.589 61.8202 126.589Z" fill="#995C41"/>
<path d="M9.35338 88.9453H28.5667V63.2026H9.35338V88.9453ZM33.2466 98.2933H4.67331C2.09197 98.2933 0 96.2 0 93.62V58.5293C0 55.9493 2.09197 53.856 4.67331 53.856H33.2466C35.8333 53.856 37.9133 55.9493 37.9133 58.5293V93.62C37.9133 96.2 35.8333 98.2933 33.2466 98.2933Z" fill="#995C41"/>
<path d="M274.887 142.789H298.82V9.35994H274.887V142.789ZM303.487 152.137H270.207C267.633 152.137 265.54 150.044 265.54 147.464V4.68526C265.54 2.10526 267.633 0.011957 270.207 0.011957H303.487C306.073 0.011957 308.167 2.10526 308.167 4.68526V147.464C308.167 150.044 306.073 152.137 303.487 152.137Z" fill="#995C41"/>
<path d="M308.167 117.241H327.393V34.9039H308.167V117.241ZM332.06 126.589H303.487C300.914 126.589 298.82 124.496 298.82 121.916V30.2306C298.82 27.6506 300.914 25.556 303.487 25.556H332.06C334.647 25.556 336.74 27.6506 336.74 30.2306V121.916C336.74 124.496 334.647 126.589 332.06 126.589Z" fill="#995C41"/>
<path d="M336.74 88.9453H355.953V63.2026H336.74V88.9453ZM360.633 98.2933H332.06C329.473 98.2933 327.393 96.2 327.393 93.62V58.5293C327.393 55.9493 329.473 53.856 332.06 53.856H360.633C363.22 53.856 365.3 55.9493 365.3 58.5293V93.62C365.3 96.2 363.22 98.2933 360.633 98.2933Z" fill="#995C41"/>
<path d="M99.7667 88.9453H265.54V63.2026H99.7667V88.9453ZM270.207 98.2933H95.0867C92.5134 98.2933 90.42 96.2 90.42 93.62V58.5293C90.42 55.9493 92.5134 53.856 95.0867 53.856H270.207C272.793 53.856 274.887 55.9493 274.887 58.5293V93.62C274.887 96.2 272.793 98.2933 270.207 98.2933Z" fill="#995C41"/>
</svg>
