<svg width="429" height="181" viewBox="0 0 429 181" fill="none" xmlns="http://www.w3.org/2000/svg">
<path d="M276.554 57.7839C245.181 57.7839 219.647 83.3106 219.647 114.689C219.647 146.067 245.181 171.593 276.554 171.593C307.927 171.593 333.461 146.067 333.461 114.689C333.461 83.3106 307.927 57.7839 276.554 57.7839ZM276.554 180.941C240.021 180.941 210.301 151.223 210.301 114.689C210.301 78.1559 240.021 48.4373 276.554 48.4373C313.087 48.4373 342.807 78.1559 342.807 114.689C342.807 151.223 313.087 180.941 276.554 180.941Z" fill="#995C41"/>
<path d="M311.261 170.231C309.741 170.231 308.261 169.492 307.354 168.131C305.941 165.976 306.527 163.077 308.687 161.656L406.514 97.132C409.621 93.688 431.607 67.1986 410.901 30.6453C395.434 3.36264 362.261 10.2093 358.247 11.1493L246.847 66.1253C244.541 67.2693 241.727 66.316 240.594 64.004C239.447 61.688 240.394 58.8866 242.714 57.7453L354.554 2.54401C354.834 2.41067 355.114 2.30135 355.407 2.22135C355.834 2.10269 399.101 -9.12266 419.034 26.0387C444.314 70.6467 413.234 103.64 412.927 103.969C412.687 104.216 412.421 104.435 412.141 104.623L313.834 169.457C313.034 169.981 312.141 170.231 311.261 170.231" fill="#995C41"/>
<path d="M276.554 180.941H4.67402C2.66069 180.941 0.87272 179.652 0.239386 177.74C-0.396613 175.829 0.263392 173.727 1.87806 172.523L99.9407 99.2893C100.754 98.6866 101.727 98.3613 102.741 98.3613H214.981C217.554 98.3613 219.647 100.455 219.647 103.035C219.647 105.615 217.554 107.709 214.981 107.709H104.301L18.7434 171.593H276.554C279.141 171.593 281.234 173.688 281.234 176.268C281.234 178.848 279.141 180.941 276.554 180.941" fill="#995C41"/>
<path d="M276.554 81.9426C258.5 81.9426 243.807 96.6333 243.807 114.689C243.807 132.745 258.5 147.437 276.554 147.437C294.607 147.437 309.3 132.745 309.3 114.689C309.3 96.6333 294.607 81.9426 276.554 81.9426ZM276.554 156.784C253.34 156.784 234.46 137.9 234.46 114.689C234.46 91.4773 253.34 72.5946 276.554 72.5946C299.767 72.5946 318.647 91.4773 318.647 114.689C318.647 137.9 299.767 156.784 276.554 156.784Z" fill="#995C41"/>
<path d="M276.554 104.128C270.727 104.128 265.994 108.865 265.994 114.689C265.994 120.513 270.727 125.251 276.554 125.251C282.381 125.251 287.114 120.513 287.114 114.689C287.114 108.865 282.381 104.128 276.554 104.128ZM276.554 134.599C265.581 134.599 256.647 125.668 256.647 114.689C256.647 103.711 265.581 94.78 276.554 94.78C287.541 94.78 296.461 103.711 296.461 114.689C296.461 125.668 287.541 134.599 276.554 134.599Z" fill="#995C41"/>
</svg>
